<svg xmlns="http://www.w3.org/2000/svg" viewBox="0 0 313.57 313.56"><defs><style>.cls-1{fill:#e94f35;}</style></defs><g id="Ebene_2" data-name="Ebene 2"><g id="Ebene_1-2" data-name="Ebene 1"><path class="cls-1" d="M156.78,0A156.78,156.78,0,1,0,313.57,156.78,156.78,156.78,0,0,0,156.78,0Zm91,71.72c-.38,3.25-.81,6.53-1.28,9.86s-1,6.72-1.57,10.15a85.9,85.9,0,0,0-.72,8.72c-.1,3-.33,6-.71,9.28-.39,2.48-.77,5-1.15,7.58s-.76,5.1-1.14,7.57q-1.43,6.85-2.57,13.72t-1.72,14a13.5,13.5,0,0,1-.28,3.14q-2.87,12.58-4.86,24.87t-4.57,24.86q-1.44,6.59-2.86,13.29t-2.86,13.29q-1.43,6.28-2.28,12.29t-2,12a60.1,60.1,0,0,1-1.58,6.86,64.63,64.63,0,0,1-2.43,6.86,8.72,8.72,0,0,1-1.57,1.72,6.3,6.3,0,0,0-1.57,2,5.21,5.21,0,0,1-3.14,2.85,2.1,2.1,0,0,0-1.29.58,11.12,11.12,0,0,0-1.28,1.14,14.66,14.66,0,0,0-1.72-1l-2-1c-1.53.38-3.1.81-4.72,1.28s-3.28.91-5,1.29a24.53,24.53,0,0,1-6.86-4.29,78.82,78.82,0,0,1-5.71-5.71,77.29,77.29,0,0,1-16-30.87q-1.43-6-2.57-12t-2.57-11.72a24,24,0,0,0-2.29-7.43,22.3,22.3,0,0,1-.71,2.29,16.09,16.09,0,0,0-.72,2.57q-1.71,6.57-3.14,13.15a113.38,113.38,0,0,1-3.71,13.14c-.77,2.67-1.48,5.29-2.15,7.86A81.23,81.23,0,0,0,142,267.77v3.43a11.92,11.92,0,0,1-2.43,1.43,15.83,15.83,0,0,0-2.14,1.15,18.87,18.87,0,0,0-1.72,2,22.51,22.51,0,0,1-2,2.28,14.62,14.62,0,0,1-1.85,1.57c-.67.48-1.48,1-2.43,1.58q-2.58-3.15-5-6.15a24.66,24.66,0,0,1-3.86-6.71,25.6,25.6,0,0,0-2.72-4.72c-1-1.43-2.14-2.9-3.28-4.43q-2.58-3.13-5.29-6.29c-1.81-2.09-3.48-4.19-5-6.28a112.38,112.38,0,0,1-12.43-21.15A144.4,144.4,0,0,1,83.71,202q-4.29-16.86-7-33.72t-4.43-34q-.86-13.14-1.71-26.15a242,242,0,0,1-.29-26.43q.57-5.43,1.29-10.86t1.28-11.15a29.43,29.43,0,0,1,1.72-4.86c1.33.39,2.09.86,2.28,1.43,1,1.14,1.86,2.34,2.72,3.57s1.76,2.43,2.71,3.58a20,20,0,0,1,4,7.43q1.14,4,2,8.28.85,4,1.71,7.86c.57,2.58,1,5.29,1.43,8.15a1,1,0,0,1,.28.71,1,1,0,0,0,.29.72,4.56,4.56,0,0,1,2.43,3.57,19.48,19.48,0,0,0,.71,4.14c.57,3.62,1.19,7.25,1.86,10.86s1.38,7.25,2.14,10.86q2.3,11.14,4.29,22.44t4.29,22.72q1.43,7.42,2.71,14.43T113.15,200l1.71,9.43a40.55,40.55,0,0,1,.86,4.43,37.9,37.9,0,0,0,.86,4.43q.57,1.44,1.14,3c.38,1,.76,2,1.14,3,1.15,0,1.76-.34,1.86-1a11.14,11.14,0,0,1,.43-1.85q3.15-13.72,6.29-27.15T134,167.18q4-13.73,8-27.15t8-27.15q2.58-9.43,5.29-18.72t5-18.72a36.61,36.61,0,0,0,1.15-6.15c.18-2,.47-4,.85-6.14a2.54,2.54,0,0,0,.29-1.14,4.46,4.46,0,0,1,.57-1.72,16.26,16.26,0,0,0,2.14,2.29,8.79,8.79,0,0,1,1.58,1.71,34.94,34.94,0,0,1,2,3.43l1.71,3.43a26,26,0,0,1,4,13.72V88a8.41,8.41,0,0,0,.57,3.15,30,30,0,0,1,1.58,8.57c.09,2.86,0,5.82-.15,8.86,0,1.34,0,2.67.15,4a24.56,24.56,0,0,0,.71,4.29,15.16,15.16,0,0,1,.86,3.14,8.76,8.76,0,0,1,0,3.15A109.66,109.66,0,0,0,179,140q1,8.29,1.86,16.86c.38,2.67.71,5.33,1,8s.62,5.34,1,8a35.23,35.23,0,0,0,1,5.86c.47,1.81,1,3.67,1.57,5.57a15.9,15.9,0,0,1,.86,3c.19,1.05.38,2.15.57,3.29.38,2.67.72,5.39,1,8.15s.62,5.57,1,8.43v1.14q1.43,5.71,2.43,11.43t2.14,11.43c.19-.57.38-1.14.58-1.71s.38-1.24.57-2q5.15-24.28,10.43-47.87t11.29-47.87q4-15.44,8.29-30.29t8.28-30.3c1.33-4.57,2.58-9.19,3.72-13.86s2.38-9.47,3.71-14.43a13.5,13.5,0,0,0,.58,1.86c.18.47.38,1,.57,1.57.38,1,.76,2,1.14,3.14a6.26,6.26,0,0,1,.29,3.15c0,1.33.42,2.14,1.28,2.43A3,3,0,0,1,246,56.86,32.62,32.62,0,0,1,247.75,71.72Z" transform="translate(0)"/></g></g></svg>